<?xml version="1.0" ?><!DOCTYPE svg  PUBLIC '-//W3C//DTD SVG 1.1//EN'  'http://www.w3.org/Graphics/SVG/1.1/DTD/svg11.dtd'><svg enable-background="new 0 0 128 128" id="Слой_1" version="1.1" viewBox="0 0 128 128" xml:space="preserve" xmlns="http://www.w3.org/2000/svg" xmlns:xlink="http://www.w3.org/1999/xlink"><g><path d="M123.5,108.5v-2h-15V1.5H4.5v107c0,9.4,7.6,17,17,17v-4c-7.2,0-13-5.8-13-13V5.5h96v101h-70v2   c0,7.2-5.8,13-13,13v4h85C115.9,125.5,123.5,117.9,123.5,108.5z M106.5,121.5H32.4c3.2-2.7,5.4-6.6,5.9-11h81   C118.4,116.7,113,121.5,106.5,121.5z" fill="#FFFFFF"/><path d="M27,61c-4.4,0-8,3.6-8,8s3.6,8,8,8s8-3.6,8-8c0-1.5-0.4-2.9-1.1-4.1l9.1-9.1c1.2,0.7,2.6,1.1,4.1,1.1   c1.5,0,2.9-0.4,4.1-1.1l9.1,9.1C59.4,66.1,59,67.5,59,69c0,4.4,3.6,8,8,8s8-3.6,8-8c0-2-0.8-3.9-2-5.3l11.4-17.1   c0.8,0.3,1.7,0.5,2.6,0.5c4.4,0,8-3.6,8-8s-3.6-8-8-8s-8,3.6-8,8c0,2,0.8,3.9,2,5.3L69.6,61.5C68.8,61.2,67.9,61,67,61   c-1.5,0-2.9,0.4-4.1,1.1l-9.1-9.1c0.7-1.2,1.1-2.6,1.1-4.1c0-4.4-3.6-8-8-8s-8,3.6-8,8c0,1.5,0.4,2.9,1.1,4.1l-9.1,9.1   C29.9,61.4,28.5,61,27,61z M27,73c-2.2,0-4-1.8-4-4s1.8-4,4-4s4,1.8,4,4S29.2,73,27,73z M87,35c2.2,0,4,1.8,4,4s-1.8,4-4,4   s-4-1.8-4-4S84.8,35,87,35z M67,65c2.2,0,4,1.8,4,4s-1.8,4-4,4s-4-1.8-4-4S64.8,65,67,65z M47,45c2.2,0,4,1.8,4,4s-1.8,4-4,4   s-4-1.8-4-4S44.8,45,47,45z" fill="#FFFFFF"/></g></svg>