<?xml version="1.0" ?><!DOCTYPE svg  PUBLIC '-//W3C//DTD SVG 1.1//EN'  'http://www.w3.org/Graphics/SVG/1.1/DTD/svg11.dtd'><svg enable-background="new 0 0 128 128" id="Слой_1" version="1.1" viewBox="0 0 128 128" xml:space="preserve" xmlns="http://www.w3.org/2000/svg" xmlns:xlink="http://www.w3.org/1999/xlink"><g/><path d="M126.8,64L111,48.2V12H92v17.2l-28-28L1.2,64L9,71.8l8-8V126h94V63.8l8,8L126.8,64z M6.8,64L64,6.8l32,32V16  h11v33.8L121.2,64l-2.2,2.2l-55-55l-55,55L6.8,64z M107,60v62H21V60h-0.2L64,16.8L107.2,60H107z" fill="#FFFFFF"/><g><g><path d="M77.2,99" fill="#FFFFFF"/></g><path d="M94.2,84c0-1.9-0.8-3.6-2-4.9c1.2-1.2,2-2.8,2-4.6c0-3.6-2.9-6.5-6.5-6.5h-12c-0.3,0-0.5-0.2-0.5-0.5V54   c0-5-4-9-9-9c-1.9,0-3.5,1.6-3.5,3.5v9.2c-1.9,5.4-5.2,10.1-9.6,13.6V71H33.8v38h19.4v-2.3c3,1.5,6.2,2.3,9.6,2.3h19.5   c3.3,0,6-2.7,6-6c0-0.9-0.2-1.7-0.5-2.5c2.6-1,4.5-3.6,4.5-6.5c0-1.5-0.5-2.9-1.3-4.1C92.9,88.7,94.2,86.5,94.2,84z M49.1,105H37.8   V75h11.4V105z M85.2,97h-3v4c1.1,0,2,0.9,2,2s-0.9,2-2,2H62.7c-3.4,0-6.7-1-9.6-2.9V76.4l2.4-1.9c5.2-4.1,9-9.6,11.1-15.9l0.1-0.3   V49c2.5,0.3,4.5,2.4,4.5,5v13.5c0,2.5,2,4.5,4.5,4.5h12c1.4,0,2.5,1.1,2.5,2.5S89.1,77,87.7,77h-0.5v4c1.7,0,3,1.3,3,3s-1.3,3-3,3   h-1v0.1c-0.3,0-0.7-0.1-1-0.1v4c1.7,0,3,1.3,3,3S86.9,97,85.2,97z" fill="#FFFFFF"/><g><path d="M83.2,99" fill="#FFFFFF"/></g></g></svg>